<?xml version="1.0"?>
<svg xmlns="http://www.w3.org/2000/svg" xmlns:xlink="http://www.w3.org/1999/xlink" xmlns:svgjs="http://svgjs.com/svgjs" version="1.1" width="512" height="512" x="0" y="0" viewBox="0 0 64 64" style="enable-background:new 0 0 512 512" xml:space="preserve" class=""><g><g xmlns="http://www.w3.org/2000/svg" id="network"><path d="m61 16v2a2.006 2.006 0 0 1 -2 2h-22a2.006 2.006 0 0 1 -2-2v-2z" fill="#c6c5ca" data-original="#c6c5ca" style=""/><path d="m61 5v11h-26v-11a2.006 2.006 0 0 1 2-2h22a2.006 2.006 0 0 1 2 2z" fill="#a8d0ff" data-original="#57a4ff" style="" class=""/><path d="m54 24 2 4h-16l2-4h4 4z" fill="#c6c5ca" data-original="#c6c5ca" style=""/><path d="m46 20h4v4h-4z" fill="#898890" data-original="#898890" style="" class=""/><path d="m45 49v2a2.006 2.006 0 0 1 -2 2h-22a2.006 2.006 0 0 1 -2-2v-2z" fill="#c6c5ca" data-original="#c6c5ca" style=""/><path d="m45 38v11h-26v-11a2.006 2.006 0 0 1 2-2h22a2.006 2.006 0 0 1 2 2z" fill="#a7c8ef" data-original="#00d7df" style="" class=""/><path d="m38 57 2 4h-16l2-4h4 4z" fill="#c6c5ca" data-original="#c6c5ca" style=""/><path d="m30 53h4v4h-4z" fill="#898890" data-original="#898890" style="" class=""/><path d="m29 16v2a2.006 2.006 0 0 1 -2 2h-22a2.006 2.006 0 0 1 -2-2v-2z" fill="#c6c5ca" data-original="#c6c5ca" style=""/><path d="m29 5v11h-26v-11a2.006 2.006 0 0 1 2-2h22a2.006 2.006 0 0 1 2 2z" fill="#a8d0ff" data-original="#57a4ff" style="" class=""/><path d="m29 5v11h-26v-3h15a8 8 0 0 0 8-8v-2h1a2.006 2.006 0 0 1 2 2z" fill="#81a0c8" data-original="#006df0" style="" class=""/><path d="m61 5v11h-26v-3h15a8 8 0 0 0 8-8v-2h1a2.006 2.006 0 0 1 2 2z" fill="#81a0c8" data-original="#006df0" style="" class=""/><path d="m45 38v11h-26v-3h15a8 8 0 0 0 8-8v-2h1a2.006 2.006 0 0 1 2 2z" fill="#5781b4" data-original="#009698" style="" class=""/><path d="m22 24 2 4h-16l2-4h4 4z" fill="#c6c5ca" data-original="#c6c5ca" style=""/><path d="m14 20h4v4h-4z" fill="#898890" data-original="#898890" style="" class=""/><path d="m43 35h-22a3.009 3.009 0 0 0 -3 3v13a3.009 3.009 0 0 0 3 3h8v2h-3a.988.988 0 0 0 -.89.55l-2 4a1 1 0 0 0 .89 1.45h16a1 1 0 0 0 .89-1.45l-2-4a.988.988 0 0 0 -.89-.55h-3v-2h8a3.009 3.009 0 0 0 3-3v-13a3.009 3.009 0 0 0 -3-3zm-5.62 23 1 2h-12.76l1-2zm-6.38-2v-2h2v2zm13-5a1 1 0 0 1 -1 1h-22a1 1 0 0 1 -1-1v-1h24zm0-3h-24v-10a1 1 0 0 1 1-1h22a1 1 0 0 1 1 1z" fill="#ffffff" data-original="#000000" style="" class=""/><path d="m27 2h-22a3.009 3.009 0 0 0 -3 3v13a3.009 3.009 0 0 0 3 3h8v2h-3a.988.988 0 0 0 -.89.55l-2 4a1 1 0 0 0 .89 1.45h16a1 1 0 0 0 .89-1.45l-2-4a.988.988 0 0 0 -.89-.55h-3v-2h8a3.009 3.009 0 0 0 3-3v-13a3.009 3.009 0 0 0 -3-3zm-5.62 23 1 2h-12.76l1-2zm-6.38-2v-2h2v2zm13-5a1 1 0 0 1 -1 1h-22a1 1 0 0 1 -1-1v-1h24zm0-3h-24v-10a1 1 0 0 1 1-1h22a1 1 0 0 1 1 1z" fill="#ffffff" data-original="#000000" style="" class=""/><path d="m61 35h-9v-4h-2v5a1 1 0 0 0 1 1h9v10h-8v2h9a1 1 0 0 0 1-1v-12a1 1 0 0 0 -1-1z" fill="#ffffff" data-original="#000000" style="" class=""/><path d="m48 47h2v2h-2z" fill="#ffffff" data-original="#000000" style="" class=""/><path d="m14 31h-2v4h-9a1 1 0 0 0 -1 1v12a1 1 0 0 0 1 1h9v-2h-8v-10h9a1 1 0 0 0 1-1z" fill="#ffffff" data-original="#000000" style="" class=""/><path d="m14 47h2v2h-2z" fill="#ffffff" data-original="#000000" style="" class=""/><path d="m31 42h2v2h-2z" fill="#ffffff" data-original="#000000" style="" class=""/><path d="m35 42h2v2h-2z" fill="#ffffff" data-original="#000000" style="" class=""/><path d="m27 42h2v2h-2z" fill="#ffffff" data-original="#000000" style="" class=""/><path d="m59 2h-22a3.009 3.009 0 0 0 -3 3v13a3.009 3.009 0 0 0 3 3h8v2h-3a.988.988 0 0 0 -.89.55l-2 4a1 1 0 0 0 .89 1.45h16a1 1 0 0 0 .89-1.45l-2-4a.988.988 0 0 0 -.89-.55h-3v-2h8a3.009 3.009 0 0 0 3-3v-13a3.009 3.009 0 0 0 -3-3zm-5.62 23 1 2h-12.76l1-2zm-6.38-2v-2h2v2zm13-5a1 1 0 0 1 -1 1h-22a1 1 0 0 1 -1-1v-1h24zm0-3h-24v-10a1 1 0 0 1 1-1h22a1 1 0 0 1 1 1z" fill="#ffffff" data-original="#000000" style="" class=""/></g></g></svg>
