<?xml version="1.0"?>
<svg xmlns="http://www.w3.org/2000/svg" xmlns:xlink="http://www.w3.org/1999/xlink" xmlns:svgjs="http://svgjs.com/svgjs" version="1.1" width="512" height="512" x="0" y="0" viewBox="0 0 512.555 512.555" style="enable-background:new 0 0 512 512" xml:space="preserve" class=""><g><g xmlns="http://www.w3.org/2000/svg"><g><path d="m464.177 87.254h-415.8c-22.57 0-40.88 18.3-40.88 40.88v204.47h.59l41.921 26.977h431.555l23.024-26.977h.17l.3-204.47c0-22.58-18.31-40.88-40.88-40.88z" fill="#bbbeba" data-original="#f9f7f8" style="" class=""/><g><g id="XMLID_160_"><g><path d="m317.367 459.144 28.47 35.28h-179.12l28.47-35.28v-75.99h122.18z" fill="#434e45" data-original="#baafb9" style="" class=""/></g></g><g id="XMLID_146_"><g><path d="m317.367 383.154h-122.18v75.99l-28.47 35.28h33.788l24.122-29.892c2.814-3.487 4.348-7.832 4.348-12.312v-19.876c0-8.942 7.249-16.19 16.19-16.19h72.202z" fill="#9eaa9f" data-original="#aa9ea9" style="" class=""/><path d="m504.757 332.604-.03 22.81c-.08 22.52-18.36 40.74-40.88 40.74h-415.47c-22.57 0-40.88-18.31-40.88-40.88v-22.67h.59 496.5z" fill="#434e45" data-original="#baafb9" style="" class=""/></g></g><g><path d="m256.277 373.355c-4.143 0-7.5-3.358-7.5-7.5v-6.275c0-4.142 3.357-7.5 7.5-7.5s7.5 3.358 7.5 7.5v6.275c0 4.143-3.357 7.5-7.5 7.5z" fill="#bfc9c2" data-original="#c9bfc8" style="" class=""/></g><path d="m138.8 208.995c-15.163 0-27.5 12.336-27.5 27.5s12.337 27.5 27.5 27.5h24.603c9.383 0 18.021-4.708 23.107-12.59l3.879-6.012h1.401c14.679 19.992 38.338 33.001 64.988 33.001s50.308-13.009 64.988-33.001h1.401l3.878 6.009c5.087 7.885 13.726 12.593 23.108 12.593h24.603c15.163 0 27.5-12.336 27.5-27.5s-12.337-27.5-27.5-27.5h-9.618l-2.699-4.182c9.437-4.362 16.005-13.912 16.005-24.973 0-10.868-6.338-20.282-15.511-24.744l2.204-3.416h9.618c15.163 0 27.5-12.336 27.5-27.5s-12.337-27.5-27.5-27.5h-24.603c-9.383 0-18.021 4.708-23.107 12.59l-1.285 1.991c-6.236-6.47-14.546-10.922-23.855-12.265v-1.086c0-3.671-.451-7.237-1.282-10.657h-87.691c-.831 3.419-1.282 6.985-1.282 10.657v1.086c-9.309 1.343-17.619 5.795-23.855 12.265l-1.284-1.989c-5.087-7.885-13.726-12.593-23.108-12.593h-24.603c-15.163 0-27.5 12.336-27.5 27.5s12.337 27.5 27.5 27.5h9.618l2.204 3.416c-9.173 4.463-15.511 13.876-15.511 24.744 0 11.061 6.568 20.611 16.005 24.973l-2.699 4.182h-9.617z" fill="#efedef" data-original="#efedef" style="" class=""/><path d="m281.905 131.568h-50.255v-33.657c0-13.878 11.25-25.128 25.128-25.128s25.128 11.25 25.128 25.128v33.657z" fill="#d0d7d0" data-original="#d7d0d6" style="" class=""/><g id="XMLID_161_"><g><path d="m317.367 139.964v57.85c0 33.46-27.13 60.58-60.59 60.58s-60.59-27.12-60.59-60.58v-57.85c0-11.82 9.58-21.4 21.4-21.4h78.38c11.82 0 21.4 9.58 21.4 21.4z" fill="#abf795" data-original="#f79595" style="" class=""/></g></g></g></g><g><path d="m464.174 79.751h-17.757c-4.143 0-7.5 3.358-7.5 7.5s3.357 7.5 7.5 7.5h17.757c18.406 0 33.381 14.975 33.381 33.37l-.197 138.453c-.006 4.142 3.348 7.505 7.489 7.511h.011c4.137 0 7.494-3.351 7.5-7.489l.197-138.464c0-26.678-21.703-48.381-48.381-48.381z" fill="#ffffff" data-original="#000000" style="" class=""/><path d="m303.361 87.251c0 4.142 3.357 7.5 7.5 7.5h103.594c4.143 0 7.5-3.358 7.5-7.5s-3.357-7.5-7.5-7.5h-103.594c-4.142 0-7.5 3.357-7.5 7.5z" fill="#ffffff" data-original="#000000" style="" class=""/><path d="m504.822 291.046c-.004 0-.007 0-.011 0-4.137 0-7.494 3.351-7.5 7.489l-.038 26.565h-417.034c-4.143 0-7.5 3.358-7.5 7.5s3.357 7.5 7.5 7.5h417.013l-.022 15.29c-.066 18.34-15.041 33.261-33.381 33.261h-415.468c-18.406 0-33.381-14.974-33.381-33.38v-15.169h33.277c4.143 0 7.5-3.358 7.5-7.5s-3.357-7.5-7.5-7.5h-33.277v-196.97c0-18.406 14.975-33.38 33.381-33.38h154.313c4.143 0 7.5-3.358 7.5-7.5s-3.357-7.5-7.5-7.5h-154.313c-26.678-.001-48.381 21.702-48.381 48.379v227.14c0 26.677 21.703 48.381 48.381 48.381h139.311v52.839l-24.559 30.434h-10.567c-4.143 0-7.5 3.358-7.5 7.5s3.357 7.5 7.5 7.5h206.564c4.143 0 7.5-3.358 7.5-7.5s-3.357-7.5-7.5-7.5h-9.708l-24.559-30.433v-52.839h138.987c26.582 0 48.285-21.625 48.381-48.223l.081-56.871c.005-4.144-3.348-7.507-7.49-7.513zm-194.959 160.593h-26.525c-4.143 0-7.5 3.358-7.5 7.5s3.357 7.5 7.5 7.5h30.44l16.369 20.285h-147.739l16.369-20.285h50.808c4.143 0 7.5-3.358 7.5-7.5s-3.357-7.5-7.5-7.5h-46.894v-47.988h107.172z" fill="#ffffff" data-original="#000000" style="" class=""/><path d="m263.777 365.855v-6.275c0-4.142-3.357-7.5-7.5-7.5s-7.5 3.358-7.5 7.5v6.275c0 4.142 3.357 7.5 7.5 7.5s7.5-3.357 7.5-7.5z" fill="#ffffff" data-original="#000000" style="" class=""/><path d="m195.032 24.656 26.078 14.793c2.559 1.451 4.427 3.92 5.127 6.777l7.113 29.008c-5.689 5.876-9.201 13.871-9.201 22.676v13.157h-6.565c-14.338 0-26.265 10.5-28.508 24.214h-9.584l-9.787-15.168c-1.381-2.141-3.754-3.434-6.302-3.434h-24.603c-4.143 0-7.5 3.358-7.5 7.5s3.357 7.5 7.5 7.5h20.516l9.787 15.168c1.381 2.141 3.754 3.434 6.302 3.434h13.287v22.058h-26.08c-4.143 0-7.5 3.358-7.5 7.5s3.357 7.5 7.5 7.5h26.08v10.473c0 4.299.419 8.5 1.185 12.58h-14.472c-2.548 0-4.921 1.293-6.302 3.434l-9.787 15.168h-20.516c-4.143 0-7.5 3.358-7.5 7.5s3.357 7.5 7.5 7.5h24.603c2.548 0 4.921-1.293 6.302-3.434l9.787-15.168h15.059c10.606 23.836 34.5 40.505 62.227 40.505s51.621-16.669 62.227-40.505h15.059l9.787 15.168c1.381 2.141 3.754 3.434 6.302 3.434h24.603c4.143 0 7.5-3.358 7.5-7.5s-3.357-7.5-7.5-7.5h-20.516l-9.787-15.168c-1.381-2.141-3.754-3.434-6.302-3.434h-14.472c.766-4.08 1.185-8.281 1.185-12.58v-10.472h26.08c4.143 0 7.5-3.358 7.5-7.5s-3.357-7.5-7.5-7.5h-26.08v-22.058h13.287c2.548 0 4.921-1.293 6.302-3.434l9.787-15.168h20.516c4.143 0 7.5-3.358 7.5-7.5s-3.357-7.5-7.5-7.5h-24.603c-2.548 0-4.921 1.293-6.302 3.434l-9.787 15.168h-9.584c-2.243-13.714-14.17-24.214-28.508-24.214h-6.565v-13.157c0-8.805-3.512-16.801-9.201-22.676l7.113-29.009c.7-2.856 2.568-5.326 5.127-6.777l26.078-14.792c3.604-2.043 4.867-6.621 2.823-10.224s-6.623-4.868-10.224-2.823l-26.078 14.792c-6.135 3.479-10.616 9.404-12.295 16.253l-5.938 24.214c-3.163-1.025-6.534-1.585-10.034-1.585s-6.871.56-10.034 1.585l-5.938-24.213c-1.679-6.85-6.16-12.774-12.295-16.253l-26.078-14.792c-3.603-2.044-8.181-.78-10.224 2.823-2.044 3.601-.78 8.178 2.823 10.222zm8.659 173.157v-57.853c0-7.66 6.232-13.892 13.893-13.892h21.34v27.97c0 4.142 3.357 7.5 7.5 7.5h21.554v26.278h-11.2c-4.143 0-7.5 3.358-7.5 7.5v55.043c-25.732-3.656-45.587-25.821-45.587-52.546zm106.172-57.853v57.853c0 26.725-19.855 48.89-45.586 52.546v-47.543h11.2c4.143 0 7.5-3.358 7.5-7.5v-41.278c0-4.142-3.357-7.5-7.5-7.5h-21.554v-20.47h42.047c7.661 0 13.893 6.232 13.893 13.892zm-35.458-42.049v13.157h-35.256v-13.157c0-9.72 7.908-17.628 17.628-17.628s17.628 7.907 17.628 17.628z" fill="#ffffff" data-original="#000000" style="" class=""/></g></g></g></svg>
